<svg xmlns="http://www.w3.org/2000/svg" width="40" height="40" viewBox="0 0 40 40">
  <path id="camera" d="M8.333,40A8.342,8.342,0,0,1,0,31.667V15A8.343,8.343,0,0,1,8.333,6.667H9.18l3.641-4.72A5.037,5.037,0,0,1,16.78,0h6.44a5.037,5.037,0,0,1,3.96,1.947l3.639,4.72h.847A8.343,8.343,0,0,1,40,15V31.667A8.343,8.343,0,0,1,31.667,40Zm-5-25V31.667a5,5,0,0,0,5,5H31.667a5,5,0,0,0,5-5V15a5,5,0,0,0-5-5H8.333A5,5,0,0,0,3.333,15ZM15.459,3.984l-2.07,2.683h13.22l-2.07-2.683a1.675,1.675,0,0,0-1.32-.65H16.78A1.677,1.677,0,0,0,15.459,3.984ZM10,23.333a10,10,0,1,1,10,10A10,10,0,0,1,10,23.333Zm3.333,0A6.667,6.667,0,1,0,20,16.667,6.667,6.667,0,0,0,13.333,23.333Z" fill="#708090"/>
</svg>
