<svg height="48" viewBox="0 0 48 48" width="48" xmlns="http://www.w3.org/2000/svg" xmlns:xlink="http://www.w3.org/1999/xlink"><clipPath id="a"><path d="m0 0h48v48h-48z"/></clipPath><circle cx="24" cy="24" fill="#fff" opacity=".172" r="24"/><g clip-path="url(#a)"><path d="m23.624 8.17-1.857-1.856a1.12 1.12 0 0 0 -1.589 0l-11.226 11.226-5.222-5.227a1.12 1.12 0 0 0 -1.589 0l-1.861 1.861a1.126 1.126 0 0 0 0 1.594l7.875 7.879a1.12 1.12 0 0 0 1.589 0l13.875-13.884a1.13 1.13 0 0 0 0-1.594zm-15.2 4.969a.744.744 0 0 0 1.059 0l9.75-9.759a.753.753 0 0 0 0-1.059l-2.12-2.121a.744.744 0 0 0 -1.059 0l-7.1 7.1-2.6-2.6a.744.744 0 0 0 -1.054 0l-2.127 2.12a.753.753 0 0 0 0 1.059l5.25 5.259z" fill="#fff" transform="translate(12.05 12.025)"/></g></svg>