<svg height="48" viewBox="0 0 48 48" width="48" xmlns="http://www.w3.org/2000/svg" xmlns:xlink="http://www.w3.org/1999/xlink"><clipPath id="a"><path d="m0 0h48v48h-48z"/></clipPath><circle cx="24" cy="24" fill="#fff" opacity=".172" r="24"/><g clip-path="url(#a)"><path d="m3.723 19.775h-2.978a.754.754 0 0 0 -.745.763v3.055a.754.754 0 0 0 .745.764h2.978a.754.754 0 0 0 .745-.764v-3.055a.754.754 0 0 0 -.745-.763zm0-15.275h-2.978a.754.754 0 0 0 -.745.764v3.055a.754.754 0 0 0 .745.764h2.978a.754.754 0 0 0 .745-.764v-3.055a.754.754 0 0 0 -.745-.764zm0 7.637h-2.978a.754.754 0 0 0 -.745.763v3.055a.754.754 0 0 0 .745.764h2.978a.754.754 0 0 0 .745-.764v-3.055a.754.754 0 0 0 -.745-.763zm19.361 8.4h-14.893a.754.754 0 0 0 -.745.764v1.529a.754.754 0 0 0 .745.764h14.893a.754.754 0 0 0 .745-.764v-1.53a.754.754 0 0 0 -.745-.762zm0-15.275h-14.893a.754.754 0 0 0 -.745.764v1.529a.754.754 0 0 0 .745.764h14.893a.754.754 0 0 0 .745-.764v-1.528a.754.754 0 0 0 -.745-.763zm0 7.637h-14.893a.754.754 0 0 0 -.745.764v1.527a.754.754 0 0 0 .745.764h14.893a.754.754 0 0 0 .745-.764v-1.525a.754.754 0 0 0 -.745-.765z" fill="#fff" transform="translate(12.192 9.678)"/></g></svg>